<svg width="17" height="17" viewBox="0 0 17 17" fill="none" xmlns="http://www.w3.org/2000/svg">
<g clip-path="url(#clip0_277_2)">
<path d="M13.8087 12.8221C13.8127 13.369 13.7088 13.9113 13.503 14.418C13.2973 14.9247 12.9937 15.3859 12.6096 15.7752C12.2255 16.1646 11.7685 16.4744 11.2646 16.687C10.7607 16.8996 10.2199 17.0108 9.67299 17.0143L8.16187 17.0253L7.79043 17.0277C7.44915 17.03 7.1119 16.9539 6.80471 16.8051C6.49753 16.6564 6.22863 16.4391 6.01877 16.1699L2.4074 11.7888L3.51456 10.7195L5.99638 12.6796L5.97296 9.22671L5.93517 3.6681L7.36018 3.65861L7.39734 9.21851L8.10118 9.21389L8.08525 6.76198L9.50948 6.75251L9.52538 9.2044L10.2292 9.1998L10.2166 7.30722L11.6416 7.29774L11.6543 9.19032L12.3597 9.18333L12.3525 7.88163L13.7764 7.87359L13.7836 9.17527L13.8079 12.8229L13.8087 12.8221ZM4.86764 3.86302C4.75552 3.50971 4.75057 3.1311 4.85344 2.77498C4.9563 2.41886 5.16236 2.1012 5.44561 1.86209C5.72885 1.62299 6.07659 1.47315 6.44491 1.4315C6.81324 1.38985 7.18565 1.45825 7.51514 1.62808C7.78175 1.76646 8.01127 1.96678 8.18445 2.21221C8.35763 2.45765 8.46941 2.74104 8.51042 3.03862C8.55142 3.33619 8.52044 3.63925 8.42009 3.92238C8.31975 4.2055 8.15295 4.46043 7.9337 4.66576L7.94004 5.37327C8.30716 5.14551 8.60741 4.8246 8.81028 4.44316C9.01315 4.06173 9.1114 3.63338 9.09504 3.20166C9.07868 2.76995 8.94829 2.35026 8.71714 1.98528C8.48598 1.62029 8.1623 1.32303 7.779 1.1237C7.21674 0.832755 6.56353 0.771264 5.95685 0.952168C5.35016 1.13307 4.83731 1.54227 4.52621 2.09364C4.21511 2.64501 4.13003 3.29556 4.28886 3.9084C4.4477 4.52123 4.83807 5.04855 5.37783 5.37939L5.37319 4.66471C5.13847 4.44545 4.96434 4.16931 4.86764 3.86302Z" fill="black"/>
</g>
<defs>
<clipPath id="clip0_277_2">
<rect width="17" height="17" fill="white"/>
</clipPath>
</defs>
</svg>
